<svg width="16" height="16" viewBox="0 0 16 16" fill="none" xmlns="http://www.w3.org/2000/svg">
  <path d="M0.533447 0.533325L1.17345 2.66666M1.17345 2.66666L3.73345 11.2H15.4668V4.79999C15.4668 3.62178 14.5117 2.66666 13.3334 2.66666H1.17345ZM9.06678 4.26666V9.59999M6.40011 6.93332H11.7334M13.3334 15.4667C12.7443 15.4667 12.2668 14.9891 12.2668 14.4C12.2668 13.8109 12.7443 13.3333 13.3334 13.3333C13.9226 13.3333 14.4001 13.8109 14.4001 14.4C14.4001 14.9891 13.9226 15.4667 13.3334 15.4667ZM4.80011 14.4C4.80011 13.8109 5.27768 13.3333 5.86678 13.3333C6.45588 13.3333 6.93345 13.8109 6.93345 14.4C6.93345 14.9891 6.45588 15.4667 5.86678 15.4667C5.27768 15.4667 4.80011 14.9891 4.80011 14.4Z" stroke="white"/>
</svg>
